HIERARCHY
ROOT hip
{
  OFFSET 0 0 0
  CHANNELS 6 Xposition Yposition Zposition Zrotation Yrotation Xrotation
  JOINT abdomen
  {
    OFFSET 0 20.6881 -0.73152
    CHANNELS 3 Zrotation Xrotation Yrotation
    JOINT chest
    {
      OFFSET 0 11.7043 -0.48768
      CHANNELS 3 Zrotation Xrotation Yrotation
      JOINT neck
      {
        OFFSET 0 22.1894 -2.19456
        CHANNELS 3 Zrotation Xrotation Yrotation
        JOINT head
        {
          OFFSET -0.24384 7.07133 1.2192
          CHANNELS 3 Zrotation Xrotation Yrotation
          JOINT leftEye
          {
            OFFSET 4.14528 8.04674 8.04672
            CHANNELS 3 Zrotation Xrotation Yrotation
            End Site
            {
              OFFSET 1 0 0
            }
          }
          JOINT rightEye
          {
            OFFSET -3.6576 8.04674 8.04672
            CHANNELS 3 Zrotation Xrotation Yrotation
            End Site
            {
              OFFSET 1 0 0
            }
          }
        }
      }
      JOINT rCollar
      {
        OFFSET -2.68224 19.2634 -4.8768
        CHANNELS 3 Zrotation Xrotation Yrotation
        JOINT rShldr
        {
          OFFSET -8.77824 -1.95073 1.46304
          CHANNELS 3 Zrotation Xrotation Yrotation
          JOINT rForeArm
          {
            OFFSET -28.1742 -1.7115 0.48768
            CHANNELS 3 Zrotation Xrotation Yrotation
            JOINT rHand
            {
              OFFSET -22.5879 0.773209 7.07136
              CHANNELS 3 Zrotation Xrotation Yrotation
              JOINT rThumb1
              {
                OFFSET -1.2192 -0.487915 3.41376
                CHANNELS 3 Zrotation Xrotation Yrotation
                JOINT rThumb2
                {
                  OFFSET -3.37035 -0.52449 3.41376
                  CHANNELS 3 Zrotation Xrotation Yrotation
                  End Site
                  {
                    OFFSET -1.78271 -1.18214 1.43049
                  }
                }
              }
              JOINT rIndex1
              {
                OFFSET -7.75947 0.938293 5.60832
                CHANNELS 3 Zrotation Xrotation Yrotation
                JOINT rIndex2
                {
                  OFFSET -2.54057 -0.884171 1.56538
                  CHANNELS 3 Zrotation Xrotation Yrotation
                  End Site
                  {
                    OFFSET -1.62519 -0.234802 1.16502
                  }
                }
              }
              JOINT rMid1
              {
                OFFSET -8.24714 1.18213 3.41376
                CHANNELS 3 Zrotation Xrotation Yrotation
                JOINT rMid2
                {
                  OFFSET -3.10165 -0.590103 1.0647
                  CHANNELS 3 Zrotation Xrotation Yrotation
                  End Site
                  {
                    OFFSET -2.48547 -0.328903 0.83742
                  }
                }
              }
              JOINT rRing1
              {
                OFFSET -8.82822 0.546677 1.51678
                CHANNELS 3 Zrotation Xrotation Yrotation
                JOINT rRing2
                {
                  OFFSET -2.60934 -0.819778 -0.0198488
                  CHANNELS 3 Zrotation Xrotation Yrotation
                  End Site
                  {
                    OFFSET -2.33842 -0.294052 0.168128
                  }
                }
              }
              JOINT rPinky1
              {
                OFFSET -8.27202 -0.0477905 -0.4584
                CHANNELS 3 Zrotation Xrotation Yrotation
                JOINT rPinky2
                {
                  OFFSET -1.82734 -0.647385 -0.700984
                  CHANNELS 3 Zrotation Xrotation Yrotation
                  End Site
                  {
                    OFFSET -1.69225 -0.51767 -0.607171
                  }
                }
              }
            }
          }
        }
      }
      JOINT lCollar
      {
        OFFSET 2.68224 19.2634 -4.8768
        CHANNELS 3 Zrotation Xrotation Yrotation
        JOINT lShldr
        {
          OFFSET 8.77824 -1.95073 1.46304
          CHANNELS 3 Zrotation Xrotation Yrotation
          JOINT lForeArm
          {
            OFFSET 28.1742 -1.7115 0.48768
            CHANNELS 3 Zrotation Xrotation Yrotation
            JOINT lHand
            {
              OFFSET 22.5879 0.773209 7.07136
              CHANNELS 3 Zrotation Xrotation Yrotation
              JOINT lThumb1
              {
                OFFSET 1.2192 -0.487915 3.41376
                CHANNELS 3 Zrotation Xrotation Yrotation
                JOINT lThumb2
                {
                  OFFSET 3.37035 -0.52449 3.41376
                  CHANNELS 3 Zrotation Xrotation Yrotation
                  End Site
                  {
                    OFFSET 1.78271 -1.18214 1.43049
                  }
                }
              }
              JOINT lIndex1
              {
                OFFSET 7.75947 0.938293 5.60832
                CHANNELS 3 Zrotation Xrotation Yrotation
                JOINT lIndex2
                {
                  OFFSET 2.54057 -0.884171 1.56538
                  CHANNELS 3 Zrotation Xrotation Yrotation
                  End Site
                  {
                    OFFSET 1.62519 -0.234802 1.16502
                  }
                }
              }
              JOINT lMid1
              {
                OFFSET 8.24714 1.18213 3.41376
                CHANNELS 3 Zrotation Xrotation Yrotation
                JOINT lMid2
                {
                  OFFSET 3.10165 -0.590103 1.0647
                  CHANNELS 3 Zrotation Xrotation Yrotation
                  End Site
                  {
                    OFFSET 2.48547 -0.328903 0.83742
                  }
                }
              }
              JOINT lRing1
              {
                OFFSET 8.82822 0.546677 1.51678
                CHANNELS 3 Zrotation Xrotation Yrotation
                JOINT lRing2
                {
                  OFFSET 2.60934 -0.819778 -0.0198488
                  CHANNELS 3 Zrotation Xrotation Yrotation
                  End Site
                  {
                    OFFSET 2.33842 -0.294052 0.168128
                  }
                }
              }
              JOINT lPinky1
              {
                OFFSET 8.27202 -0.0477905 -0.4584
                CHANNELS 3 Zrotation Xrotation Yrotation
                JOINT lPinky2
                {
                  OFFSET 1.82734 -0.647385 -0.700984
                  CHANNELS 3 Zrotation Xrotation Yrotation
                  End Site
                  {
                    OFFSET 1.69225 -0.51767 -0.607171
                  }
                }
              }
            }
          }
        }
      }
    }
  }
  JOINT rButtock
  {
    OFFSET -8.77824 4.35084 1.2192
    CHANNELS 3 Zrotation Xrotation Yrotation
    JOINT rThigh
    {
      OFFSET 0 -1.70687 -2.19456
      CHANNELS 3 Zrotation Xrotation Yrotation
      JOINT rShin
      {
        OFFSET 0 -36.8199 0.73152
        CHANNELS 3 Zrotation Xrotation Yrotation
        JOINT rFoot
        {
          OFFSET 0.73152 -45.1104 -5.12064
          CHANNELS 3 Zrotation Xrotation Yrotation
          End Site
          {
            OFFSET -1.1221 -3.69964 12.103
          }
        }
      }
    }
  }
  JOINT lButtock
  {
    OFFSET 8.77824 4.35084 1.2192
    CHANNELS 3 Zrotation Xrotation Yrotation
    JOINT lThigh
    {
      OFFSET 0 -1.70687 -2.19456
      CHANNELS 3 Zrotation Xrotation Yrotation
      JOINT lShin
      {
        OFFSET 0 -36.8199 0.73152
        CHANNELS 3 Zrotation Xrotation Yrotation
        JOINT lFoot
        {
          OFFSET -0.73152 -45.1104 -5.12064
          CHANNELS 3 Zrotation Xrotation Yrotation
          End Site
          {
            OFFSET 1.1221 -3.69964 12.103
          }
        }
      }
    }
  }
}
MOTION
Frames:	4
Frame Time:	0.00833333
272.548 71.5273 16.3464 -176.615 9.1487 186.392 0.54247 43.1119 0.557415 -4.11767 -3.9418 2.06903 12.7651 17.1806 13.3861 -35.0978 -48.9994 15.3693 -0.0 0.0 0.0 -0.0 0.0 0.0 1.46443e-13 -2.86215e-14 -2.14141e-13 39.297 -2.17809 27.7196 -22.1088 -51.5166 108.81 -0.212929 -13.0318 -1.86408 6.53467e-10 2.91987e-09 6.87665e-10 1.12561e-09 5.04685e-09 1.1943e-09 6.53469e-10 2.91988e-09 6.87665e-10 7.73091 5.47488 0.417314 6.53466e-10 2.91988e-09 6.87668e-10 2.90554 0.965183 0.102902 6.53475e-10 2.91989e-09 6.87668e-10 10.2786 0.731801 0.0259123 6.53463e-10 2.91987e-09 6.87665e-10 2.22167 -0.733487 -0.20892 1.46178e-13 -2.86308e-14 -2.14389e-13 -28.8248 -11.9951 -13.1267 25.9153 -46.4347 -96.477 0.244098 13.9309 -1.99778 -7.60722e-10 -6.83052e-09 2.01801e-09 -1.29814e-09 -1.18864e-08 3.49767e-09 -7.60719e-10 -6.83051e-09 2.01803e-09 -7.73091 5.47488 -0.417314 -7.60723e-10 -6.83052e-09 2.01801e-09 -2.90554 0.965183 -0.102902 -7.60725e-10 -6.83052e-09 2.01802e-09 -10.2786 0.731801 -0.0259123 -7.60718e-10 -6.83052e-09 2.018e-09 -2.22167 -0.733487 0.20892 -2.03217e-16 0.0 -3.88251e-19 13.5069 -55.2903 5.30785 -1.95806 70.1092 2.72367 -9.94591 -18.5412 -21.2975 2.03217e-16 0.0 3.88251e-19 -6.0327 -49.4792 -28.4925 2.29229 71.9849 -2.98449 9.66948 -19.2416 20.1138
272.619 71.3789 16.4833 -176.426 8.921 186.439 0.833938 43.2789 0.447569 -4.13366 -3.98501 2.08008 12.8164 17.2609 13.3579 -35.1854 -49.2294 15.2508 -0.0 0.0 0.0 -0.0 0.0 0.0 1.54622e-13 -2.38522e-14 -1.76283e-13 39.2849 -2.24644 27.9319 -22.1403 -51.4855 108.724 -0.210088 -12.9449 -1.85122 3.21924e-10 2.99687e-09 1.17862e-09 5.45484e-10 5.15905e-09 2.04294e-09 3.21925e-10 2.99688e-09 1.17862e-09 7.73091 5.47488 0.417314 3.21923e-10 2.99689e-09 1.17863e-09 2.90554 0.965183 0.102902 3.21931e-10 2.99689e-09 1.17862e-09 10.2786 0.731801 0.0259123 3.21921e-10 2.99687e-09 1.17862e-09 2.22167 -0.733487 -0.20892 1.54359e-13 -2.38583e-14 -1.76554e-13 -28.9176 -12.1929 -13.2045 25.8981 -46.467 -96.547 0.245682 13.9751 -2.00438 -4.67814e-10 -6.76041e-09 1.81555e-09 -7.91e-10 -1.17474e-08 3.14313e-09 -4.67812e-10 -6.76041e-09 1.81557e-09 -7.73091 5.47488 -0.417314 -4.67815e-10 -6.76042e-09 1.81555e-09 -2.90554 0.965183 -0.102902 -4.67817e-10 -6.76041e-09 1.81555e-09 -10.2786 0.731801 -0.0259123 -4.6781e-10 -6.76041e-09 1.81554e-09 -2.22167 -0.733487 0.20892 -2.03217e-16 0.0 -3.88251e-19 13.9654 -55.5196 5.57698 -1.98849 70.3288 2.76 -10.0301 -18.5862 -21.4298 2.03217e-16 0.0 3.88251e-19 -6.31201 -49.7728 -29.1089 2.36085 72.3568 -3.05273 9.73509 -19.0468 20.3566
272.684 71.2364 16.6173 -176.223 8.7159 186.471 1.13866 43.4677 0.326338 -4.16146 -4.01337 2.09345 12.8701 17.3486 13.3244 -35.2561 -49.4876 15.1204 -0.0 0.0 0.0 -0.0 0.0 0.0 1.74725e-13 -1.39159e-14 -1.2438e-13 39.2742 -2.32834 28.176 -22.1686 -51.4576 108.646 -0.208675 -12.9023 -1.84491 -1.74258e-10 3.00901e-09 1.85779e-09 -3.22144e-10 5.14986e-09 3.21659e-09 -1.74256e-10 3.00902e-09 1.85779e-09 7.73091 5.47488 0.417314 -1.74259e-10 3.00902e-09 1.85779e-09 2.90554 0.965183 0.102902 -1.74251e-10 3.00902e-09 1.85779e-09 10.2786 0.731801 0.0259123 -1.7426e-10 3.00902e-09 1.85779e-09 2.22167 -0.733487 -0.20892 1.74505e-13 -1.39157e-14 -1.24669e-13 -28.9971 -12.3902 -13.3105 25.8855 -46.4906 -96.598 0.247801 14.0338 -2.01314 -2.36095e-11 -6.54249e-09 1.49432e-09 -2.2269e-11 -1.13423e-08 2.58074e-09 -2.36087e-11 -6.54249e-09 1.49434e-09 -7.73091 5.47488 -0.417314 -2.36114e-11 -6.5425e-09 1.49433e-09 -2.90554 0.965183 -0.102902 -2.36118e-11 -6.54249e-09 1.49432e-09 -10.2786 0.731801 -0.0259123 -2.36046e-11 -6.54249e-09 1.49431e-09 -2.22167 -0.733487 0.20892 -2.03217e-16 0.0 -3.88251e-19 14.4212 -55.7361 5.82032 -2.01921 70.5451 2.79614 -10.0901 -18.636 -21.5091 2.03217e-16 0.0 3.88251e-19 -6.57465 -50.0679 -29.7216 2.43842 72.7579 -3.12901 9.75909 -18.9292 20.464
272.74 71.0992 16.7446 -176.012 8.5386 186.485 1.44571 43.6721 0.198938 -4.19452 -4.031 2.1086 12.9184 17.4499 13.2898 -35.3297 -49.7511 14.9844 -0.0 0.0 0.0 -0.0 0.0 0.0 1.91202e-13 -4.17822e-15 -7.35259e-14 39.2461 -2.40099 28.4338 -22.1972 -51.4293 108.568 -0.207874 -12.879 -1.84146 -5.99634e-10 2.8915e-09 2.36767e-09 -1.06518e-09 4.92272e-09 4.0974e-09 -5.99632e-10 2.89151e-09 2.36766e-09 7.73091 5.47488 0.417314 -5.99635e-10 2.89151e-09 2.36767e-09 2.90554 0.965183 0.102902 -5.99628e-10 2.89151e-09 2.36767e-09 10.2786 0.731801 0.0259123 -5.99635e-10 2.89151e-09 2.36767e-09 2.22167 -0.733487 -0.20892 1.91044e-13 -4.17188e-15 -7.38244e-14 -29.0463 -12.5523 -13.4116 25.8789 -46.5031 -96.6251 0.250097 14.0969 -2.02257 3.63144e-10 -6.06737e-09 1.15258e-09 6.46249e-10 -1.04946e-08 1.98383e-09 3.63143e-10 -6.06737e-09 1.1526e-09 -7.73091 5.47488 -0.417314 3.63142e-10 -6.06738e-09 1.15259e-09 -2.90554 0.965183 -0.102902 3.63142e-10 -6.06737e-09 1.15258e-09 -10.2786 0.731801 -0.0259123 3.6315e-10 -6.06737e-09 1.15257e-09 -2.22167 -0.733487 0.20892 -2.03217e-16 0.0 -3.88251e-19 14.8227 -55.9246 5.99858 -2.04845 70.7458 2.83009 -10.1283 -18.6697 -21.5553 2.03217e-16 0.0 3.88251e-19 -6.82121 -50.3554 -30.2794 2.52363 73.1764 -3.21223 9.75354 -18.8522 20.4841
